# xmcd CD database file
#
# Track frame offsets:
#	150
#	16820
#	32459
#	46585
#	63005
#	80267
#	98383
#	115654
#	137890
#	155175
#	176905
#
# Disc length: 2557 seconds
#
# Revision: 0
# Processed by: cddbd v1.5.2PL0 Copyright (c) Steve Scherf et al.
# Submitted via: CDex 1.70beta2
#
DISCID=7909fb0b
DTITLE=winnie - Dye Myself Black
DYEAR=2009
DGENRE=Emo
TTITLE0=who's dreaming deep
TTITLE1=i don't want to be with you
TTITLE2=winner
TTITLE3=grace in december
TTITLE4=boys and girls
TTITLE5=everything
TTITLE6=end over end
TTITLE7=discolor and cloud
TTITLE8=trace of me
TTITLE9=black
TTITLE10=deeper in my dreams
EXTD=YEAR: 2009
EXTT0=
EXTT1=
EXTT2=
EXTT3=
EXTT4=
EXTT5=
EXTT6=
EXTT7=
EXTT8=
EXTT9=
EXTT10=
PLAYORDER=
